{"asset":{"generator":"Khronos glTF Spline I/O v0.0.1","version":"2.0"},"scenes":[{"nodes":[0]}],"nodes":[{"name":"","children":[1,2,3,4,5,6,7,8]},{"name":"eye1","matrix":[0.4619259096116675,-1.782592042351744e-18,-0.22497108915709083,0,-0.02827634743876435,0.5097226181020054,-0.058058915748175295,0,0.2231870048458243,0.06457855311426101,0.45826270661348034,0,-383.2690738631826,-108.12553198024168,19.65962822121466,1],"mesh":0},{"name":"eye2","matrix":[0.4619259096116675,-1.782592042351744e-18,-0.22497108915709083,0,-0.02827634743876435,0.5097226181020054,-0.058058915748175295,0,0.2231870048458243,0.06457855311426101,0.45826270661348034,0,-311.70641945806886,-108.12553198024168,-15.193424983844778,1],"mesh":1},{"name":"nose","matrix":[0.46192590961166746,0,-0.22497108915709088,0,0,0.5137971748920913,0,0,0.22497108915709088,0,0.46192590961166746,0,-334.162992030926,-127.03734058798824,37.415827993692815,1],"mesh":2},{"name":"cone","matrix":[0.4619259096116671,-2.139110450822091e-17,-0.22497108915709088,0,-0.08274187992377435,0.4777847669481645,-0.169891243759239,0,0.20920270615651107,0.18896892178181462,0.42954919539501535,0,-404.8620327560202,63.03820987126346,-119.4825268213585,1],"mesh":3},{"name":"icecream","matrix":[0.4619259096116675,7.130368169406976e-17,-0.22497108915709088,0,0.22497108915709627,-2.281717814210286e-16,0.46192590961167834,0,-2.852147267762858e-17,-0.5137971748921033,-2.2817178142102864e-16,0,-457.7780887189533,-174.51532744020432,-57.499684255204876,1],"mesh":4},{"name":"icecream","matrix":[0.46192590961166746,0,-0.22497108915709088,0,0,0.5137971748920913,0,0,0.22497108915709088,0,0.46192590961166746,0,-379.7410254997329,-129.9346459547241,-63.98815573334315,1],"mesh":5},{"name":"Directional Light","translation":[200,300,300],"rotation":[-0.4062840720729887,0.12301291902225084,-0.2623788760260691,0.8665785595944042],"extensions":{"KHR_lights_punctual":{"light":0}}},{"name":"Personal Camera","camera":0,"translation":[-328.1495927993217,151.6400612423559,963.4623115212784],"rotation":[-0.10143824316708733,-0.08932595962280722,-0.009145377209577674,0.9907812663935134]}],"cameras":[{"type":"orthographic","orthographic":{"xmag":1440,"ymag":787,"zfar":500000,"znear":-500000}}],"meshes":[{"primitives":[{"attributes":{"POSITION":1,"NORMAL":2,"TEXCOORD_0":3},"indices":0}]},{"primitives":[{"attributes":{"POSITION":5,"NORMAL":6,"TEXCOORD_0":7},"indices":4}]},{"primitives":[{"attributes":{"POSITION":9,"NORMAL":10,"TEXCOORD_0":11},"indices":8}]},{"primitives":[{"attributes":{"POSITION":13,"NORMAL":14},"indices":12}]},{"primitives":[{"attributes":{"POSITION":16,"NORMAL":17,"TEXCOORD_0":18},"indices":15}]},{"primitives":[{"attributes":{"POSITION":20,"NORMAL":21},"indices":19}]}],"buffers":[{"uri":"data:application/octet-stream;base64,","byteLength":42960},{"uri":"data:application/octet-stream;base64,","byteLength":42960},{"uri":"data:application/octet-stream;base64,","byteLength":183584},{"uri":"data:application/octet-stream;base64,","byteLength":80640},{"uri":"data:application/octet-stream;base64,","byteLength":905280},{"uri":"data:application/octet-stream;base64,","byteLength":86400}],"bufferViews":[{"buffer":0,"byteOffset":0,"byteLength":6096,"target":34963},{"buffer":0,"byteOffset":6096,"byteLength":12288,"target":34962},{"buffer":0,"byteOffset":18384,"byteLength":12288,"target":34962},{"buffer":0,"byteOffset":30672,"byteLength":12288,"target":34962},{"buffer":1,"byteOffset":0,"byteLength":6096,"target":34963},{"buffer":1,"byteOffset":6096,"byteLength":12288,"target":34962},{"buffer":1,"byteOffset":18384,"byteLength":12288,"target":34962},{"buffer":1,"byteOffset":30672,"byteLength":12288,"target":34962},{"buffer":2,"byteOffset":0,"byteLength":48384,"target":34963},{"buffer":2,"byteOffset":48384,"byteLength":50700,"target":34962},{"buffer":2,"byteOffset":99084,"byteLength":50700,"target":34962},{"buffer":2,"byteOffset":149784,"byteLength":33800,"target":34962},{"buffer":3,"byteOffset":0,"byteLength":16128,"target":34963},{"buffer":3,"byteOffset":16128,"byteLength":32256,"target":34962},{"buffer":3,"byteOffset":48384,"byteLength":32256,"target":34962},{"buffer":4,"byteOffset":0,"byteLength":168768,"target":34963},{"buffer":4,"byteOffset":168768,"byteLength":245504,"target":34962},{"buffer":4,"byteOffset":414272,"byteLength":245504,"target":34962},{"buffer":4,"byteOffset":659776,"byteLength":245504,"target":34962},{"buffer":5,"byteOffset":0,"byteLength":17280,"target":34963},{"buffer":5,"byteOffset":17280,"byteLength":34560,"target":34962},{"buffer":5,"byteOffset":51840,"byteLength":34560,"target":34962}],"accessors":[{"bufferView":0,"byteOffset":0,"componentType":5125,"count":1524,"type":"SCALAR","min":[0],"max":[383]},{"bufferView":1,"byteOffset":0,"componentType":5126,"count":384,"type":"VEC3","min":[-11.626133918762207,-19.68853187561035,0],"max":[11.626133918762207,19.68853187561035,10]},{"bufferView":2,"byteOffset":0,"componentType":5126,"count":384,"type":"VEC3","min":[-0.999555766582489,-0.9963636994361877,-1],"max":[0.999555766582489,0.9963636994361877,1]},{"bufferView":3,"byteOffset":0,"componentType":5126,"count":384,"type":"VEC2","min":[0,0],"max":[1,1]},{"bufferView":4,"byteOffset":0,"componentType":5125,"count":1524,"type":"SCALAR","min":[0],"max":[383]},{"bufferView":5,"byteOffset":0,"componentType":5126,"count":384,"type":"VEC3","min":[-11.626133918762207,-19.68853187561035,0],"max":[11.626133918762207,19.68853187561035,10]},{"bufferView":6,"byteOffset":0,"componentType":5126,"count":384,"type":"VEC3","min":[-0.999555766582489,-0.9963636994361877,-1],"max":[0.999555766582489,0.9963636994361877,1]},{"bufferView":7,"byteOffset":0,"componentType":5126,"count":384,"type":"VEC2","min":[0,0],"max":[1,1]},{"bufferView":8,"byteOffset":0,"componentType":5123,"count":24192,"type":"SCALAR","min":[0],"max":[4224]},{"bufferView":9,"byteOffset":0,"componentType":5126,"count":4225,"type":"VEC3","min":[-49,-49,-49],"max":[49,49,49]},{"bufferView":10,"byteOffset":0,"componentType":5126,"count":4225,"type":"VEC3","min":[-1,-1,-1],"max":[1,1,1]},{"bufferView":11,"byteOffset":0,"componentType":5126,"count":4225,"type":"VEC2","min":[-0.0078125,0],"max":[1.0078125,1]},{"bufferView":12,"byteOffset":0,"componentType":5125,"count":4032,"type":"SCALAR","min":[0],"max":[2687]},{"bufferView":13,"byteOffset":0,"componentType":5126,"count":2688,"type":"VEC3","min":[-140.41664123535156,-315.25018310546875,-140.41664123535156],"max":[140.41664123535156,293.82122802734375,140.41664123535156]},{"bufferView":14,"byteOffset":0,"componentType":5126,"count":2688,"type":"VEC3","min":[-0.9999999403953552,-1,-0.9999999403953552],"max":[0.9999999403953552,1,0.9999999403953552]},{"bufferView":15,"byteOffset":0,"componentType":5125,"count":42192,"type":"SCALAR","min":[0],"max":[7671]},{"bufferView":16,"byteOffset":0,"componentType":5126,"count":7672,"type":"VEC3","min":[-77.685791015625,-169.8112335205078,0],"max":[343.9698486328125,277.8441162109375,37]},{"bufferView":17,"byteOffset":0,"componentType":5126,"count":7672,"type":"VEC3","min":[-0.9999958276748657,-0.999897837638855,-1],"max":[0.9999701380729675,0.9999499917030334,1]},{"bufferView":18,"byteOffset":0,"componentType":5126,"count":7672,"type":"VEC2","min":[0,0],"max":[1,1]},{"bufferView":19,"byteOffset":0,"componentType":5125,"count":4320,"type":"SCALAR","min":[0],"max":[2879]},{"bufferView":20,"byteOffset":0,"componentType":5126,"count":2880,"type":"VEC3","min":[-158.1537322998047,-118.08683776855469,-174.26199340820312],"max":[158.1537322998047,166.66574096679688,174.26199340820312]},{"bufferView":21,"byteOffset":0,"componentType":5126,"count":2880,"type":"VEC3","min":[-1,-0.6522569060325623,-1],"max":[1,1,1]}],"extensions":{"KHR_lights_punctual":{"lights":[{"type":"directional","name":"Directional Light","color":[1,1,1],"intensity":0.7}]}},"extensionsUsed":["KHR_lights_punctual"]}